<svg id="Layer_1" enable-background="new 0 0 512.002 512.002" height="512" viewBox="0 0 512.002 512.002" width="512" xmlns="http://www.w3.org/2000/svg">
	<g>
	<g>
		<path d="m462.001 0h-379.998c-2.652 0-5.195 1.054-7.071 2.929-1.875 1.875-2.929 4.419-2.929 7.071v66.001h-22.002c-16.542 0-30 13.458-30 30s13.458 30 30 30h22.002v40h-22.002c-16.542 0-30 13.458-30 30s13.458 30 30 30h22.002v40h-22.002c-16.542 0-30 13.458-30 30s13.458 30 30 30h22.002v39.999h-22.002c-16.542 0-30 13.458-30 30s13.458 30 30 30h22.002v66.001c0 2.652 1.054 5.196 2.929 7.071 1.876 1.875 4.419 2.929 7.071 2.929l379.998-.001c16.542 0 30-13.458 30-30v-452c0-16.542-13.458-30-30-30zm-412 116.001c-5.514 0-10-4.486-10-10s4.486-10 10-10h60c5.514 0 10 4.486 10 10s-4.486 10-10 10zm-10 90c0-5.514 4.486-10 10-10h60c5.514 0 10 4.486 10 10s-4.486 10-10 10h-60c-5.514-.001-10-4.486-10-10zm0 99.999c0-5.514 4.486-10 10-10h60c5.514 0 10 4.486 10 10s-4.486 10-10 10h-60c-5.514 0-10-4.485-10-10zm0 100c0-5.514 4.486-10 10-10h60c5.514 0 10 4.486 10 10s-4.486 10-10 10h-60c-5.514 0-10-4.486-10-10zm52.002 30h17.998c16.542 0 30-13.458 30-30s-13.458-30-30-30h-17.998v-39.999h17.998c16.542 0 30-13.458 30-30s-13.458-30-30-30h-17.998v-40h17.998c16.542 0 30-13.458 30-30s-13.458-30-30-30h-17.998v-40h17.998c16.542 0 30-13.458 30-30s-13.458-30-30-30h-17.998v-56.001h67.999v472 .002h-67.999zm379.998 46.001c0 5.514-4.486 10-10 10l-281.999.001c0-.001 0-.001 0-.002v-472h281.999c5.514 0 10 4.486 10 10v422h-54.996c-5.522 0-10 4.477-10 10s4.478 10 10 10h54.996z"/>
	</g>
	</g>
</svg>