<?xml version="1.0" encoding="iso-8859-1"?>
<!-- Generator: Adobe Illustrator 19.0.0, SVG Export Plug-In . SVG Version: 6.00 Build 0)  -->
<svg version="1.1" id="Capa_1" xmlns="http://www.w3.org/2000/svg" xmlns:xlink="http://www.w3.org/1999/xlink" x="0px" y="0px"
	 viewBox="0 0 469.333 469.333" style="enable-background:new 0 0 469.333 469.333;" xml:space="preserve">
<g>
	<g>
		<g>
			<path d="M384,384V234.667c0-82.344-67-149.333-149.333-149.333S85.333,152.323,85.333,234.667V384
				c-23.521,0-42.667,19.135-42.667,42.667v32c0,5.896,4.771,10.667,10.667,10.667H416c5.896,0,10.667-4.771,10.667-10.667v-32
				C426.667,403.135,407.521,384,384,384z M106.667,234.667c0-70.583,57.417-128,128-128s128,57.417,128,128V384h-256V234.667z
				 M405.333,448H64v-21.333c0-11.76,9.562-21.333,21.333-21.333H384c11.771,0,21.333,9.573,21.333,21.333V448z"/>
			<path d="M234.667,64c5.896,0,10.667-4.771,10.667-10.667V10.667C245.333,4.771,240.562,0,234.667,0S224,4.771,224,10.667v42.667
				C224,59.229,228.771,64,234.667,64z"/>
			<path d="M341.313,74.667c2.729,0,5.458-1.042,7.542-3.125l32.021-32c4.167-4.156,4.167-10.917,0-15.083
				c-4.167-4.167-10.917-4.167-15.083,0l-32.021,32c-4.167,4.156-4.167,10.917,0,15.083
				C335.854,73.625,338.583,74.667,341.313,74.667z"/>
			<path d="M120.437,71.542c2.083,2.083,4.813,3.125,7.542,3.125c2.729,0,5.458-1.042,7.542-3.125
				c4.167-4.156,4.167-10.917,0-15.083l-31.979-32c-4.167-4.167-10.917-4.167-15.083,0c-4.167,4.156-4.167,10.917,0,15.083
				L120.437,71.542z"/>
			<path d="M468.208,123.229c-2.646-5.271-9.021-7.375-14.313-4.771l-42.667,21.333c-5.271,2.635-7.396,9.042-4.771,14.313
				c1.875,3.74,5.646,5.896,9.542,5.896c1.604,0,3.229-0.365,4.771-1.125l42.667-21.333
				C468.708,134.906,470.833,128.5,468.208,123.229z"/>
			<path d="M53.333,160c3.896,0,7.667-2.156,9.542-5.896c2.625-5.271,0.5-11.677-4.771-14.313l-42.667-21.333
				c-5.271-2.583-11.667-0.5-14.313,4.771c-2.625,5.271-0.5,11.677,4.771,14.313l42.667,21.333
				C50.104,159.635,51.729,160,53.333,160z"/>
			<path d="M234.667,128C175.854,128,128,175.854,128,234.667c0,5.896,4.771,10.667,10.667,10.667s10.667-4.771,10.667-10.667
				c0-47.052,38.271-85.333,85.333-85.333c5.896,0,10.667-4.771,10.667-10.667S240.562,128,234.667,128z"/>
		</g>
	</g>
</g>
<g>
</g>
<g>
</g>
<g>
</g>
<g>
</g>
<g>
</g>
<g>
</g>
<g>
</g>
<g>
</g>
<g>
</g>
<g>
</g>
<g>
</g>
<g>
</g>
<g>
</g>
<g>
</g>
<g>
</g>
</svg>
