<?xml version="1.0" encoding="iso-8859-1"?>
<!-- Generator: Adobe Illustrator 19.0.0, SVG Export Plug-In . SVG Version: 6.00 Build 0)  -->
<svg version="1.1" id="Layer_1" xmlns="http://www.w3.org/2000/svg" xmlns:xlink="http://www.w3.org/1999/xlink" x="0px" y="0px"
	 viewBox="0 0 512 512" style="enable-background:new 0 0 512 512;" xml:space="preserve">
<path style="fill:#E6563A;" d="M389.565,434.087h-267.13c-9.217,0-16.696-7.479-16.696-16.696V250.435
	c0-82.858,67.403-150.261,150.261-150.261s150.261,67.403,150.261,150.261v166.957C406.261,426.608,398.782,434.087,389.565,434.087
	z"/>
<path style="fill:#D9472B;" d="M389.565,434.087c9.217,0,16.696-7.479,16.696-16.696V250.435
	c0-82.858-67.403-150.261-150.261-150.261v333.913H389.565z"/>
<g>
	<path style="fill:#FFE14D;" d="M256,66.783c-9.217,0-16.696-7.473-16.696-16.696V16.696C239.304,7.473,246.783,0,256,0
		s16.696,7.473,16.696,16.696v33.391C272.696,59.31,265.217,66.783,256,66.783z"/>
	<path style="fill:#FFE14D;" d="M55.652,267.13H22.261c-9.217,0-16.696-7.479-16.696-16.696s7.479-16.696,16.696-16.696h33.391
		c9.217,0,16.696,7.479,16.696,16.696S64.869,267.13,55.652,267.13z"/>
</g>
<g>
	<path style="fill:#FFCC33;" d="M489.739,267.13h-33.391c-9.217,0-16.696-7.479-16.696-16.696s7.479-16.696,16.696-16.696h33.391
		c9.217,0,16.696,7.479,16.696,16.696S498.956,267.13,489.739,267.13z"/>
	<path style="fill:#FFCC33;" d="M397.663,125.462c-4.272,0-8.544-1.631-11.804-4.892c-6.521-6.521-6.521-17.092,0-23.614
		l23.62-23.609c6.521-6.511,17.087-6.516,23.609,0.006c6.521,6.521,6.521,17.092,0,23.614l-23.62,23.609
		C406.206,123.832,401.934,125.462,397.663,125.462z"/>
</g>
<path style="fill:#FFE14D;" d="M114.337,125.462c-4.272,0-8.544-1.631-11.804-4.886L78.913,96.967
	c-6.521-6.521-6.521-17.092,0-23.614c6.521-6.522,17.087-6.516,23.609-0.006l23.62,23.609c6.521,6.521,6.521,17.092,0,23.614
	C122.88,123.832,118.609,125.462,114.337,125.462z"/>
<path style="fill:#BDDEFF;" d="M322.783,267.13c-9.217,0-16.696-7.479-16.696-16.696c0-27.619-22.468-50.087-50.087-50.087
	c-9.217,0-16.696-7.479-16.696-16.696s7.479-16.696,16.696-16.696c46.032,0,83.478,37.446,83.478,83.478
	C339.478,259.652,332,267.13,322.783,267.13z"/>
<path style="fill:#D7EBFF;" d="M422.957,512H89.043c-9.217,0-16.696-7.479-16.696-16.696v-77.913
	c0-9.217,7.479-16.696,16.696-16.696h333.913c9.217,0,16.696,7.479,16.696,16.696v77.913C439.652,504.521,432.174,512,422.957,512z"
	/>
<path style="fill:#BDDEFF;" d="M422.957,400.696H256V512h166.957c9.217,0,16.696-7.479,16.696-16.696v-77.913
	C439.652,408.174,432.174,400.696,422.957,400.696z"/>
<path style="fill:#FFCC33;" d="M272.696,50.087V16.696C272.696,7.473,265.217,0,256,0v66.783
	C265.217,66.783,272.696,59.31,272.696,50.087z"/>
<g>
</g>
<g>
</g>
<g>
</g>
<g>
</g>
<g>
</g>
<g>
</g>
<g>
</g>
<g>
</g>
<g>
</g>
<g>
</g>
<g>
</g>
<g>
</g>
<g>
</g>
<g>
</g>
<g>
</g>
</svg>
