<svg width="240.43" height="76.368" viewBox="0 0 240.43 76.368" xmlns="http://www.w3.org/2000/svg"><g id="svgGroup" stroke-linecap="round" fill-rule="evenodd" font-size="9pt" stroke="#000" stroke-width="0.25mm" fill="black" style="stroke:#000;stroke-width:0.25mm;fill:black"><path d="M 227.637 20.801 L 240.43 20.801 L 224.902 76.27 L 209.668 76.27 L 201.563 44.434 L 192.773 76.27 L 177.441 76.27 L 163.281 20.801 L 175.977 20.801 L 185.059 66.699 L 195.313 20.801 L 208.105 20.801 L 217.383 66.699 L 227.637 20.801 Z M 27.051 75.879 L 0 75.879 L 0 3.906 L 20.703 3.906 A 36.503 36.503 0 0 1 29.59 4.98 A 23.513 23.513 0 0 1 35.036 7.058 A 20.936 20.936 0 0 1 37.207 8.398 A 16.838 16.838 0 0 1 42.48 14.502 A 16.874 16.874 0 0 1 44.086 19.322 A 23.227 23.227 0 0 1 44.434 23.438 A 16.267 16.267 0 0 1 44.098 26.801 A 13.55 13.55 0 0 1 43.457 28.955 A 18.253 18.253 0 0 1 42.086 31.754 A 15.206 15.206 0 0 1 41.016 33.301 A 13.696 13.696 0 0 1 37.646 36.377 A 14.012 14.012 0 0 1 36.008 37.286 Q 34.973 37.769 33.984 37.988 Q 36.23 38.281 38.77 39.453 A 16.377 16.377 0 0 1 42.528 41.88 A 19.262 19.262 0 0 1 43.506 42.773 A 17.437 17.437 0 0 1 46.441 46.607 A 20.789 20.789 0 0 1 47.168 47.998 A 14.866 14.866 0 0 1 48.427 52.206 A 19.324 19.324 0 0 1 48.633 55.078 A 27.314 27.314 0 0 1 48.372 58.955 Q 48.082 60.977 47.468 62.698 A 15.932 15.932 0 0 1 47.168 63.477 A 21.617 21.617 0 0 1 45.549 66.642 A 16.375 16.375 0 0 1 43.506 69.287 A 18.622 18.622 0 0 1 40.3 71.981 A 16.444 16.444 0 0 1 38.721 72.9 A 30.945 30.945 0 0 1 35.871 74.183 A 24.527 24.527 0 0 1 33.74 74.902 A 28.43 28.43 0 0 1 31.885 75.369 Q 30.957 75.568 30.127 75.669 A 15.179 15.179 0 0 1 29.492 75.732 Q 27.976 75.852 27.308 75.874 A 8.016 8.016 0 0 1 27.051 75.879 Z M 76.27 0 L 76.27 59.082 A 20.446 20.446 0 0 0 76.355 61.019 Q 76.447 61.977 76.636 62.779 A 8.059 8.059 0 0 0 77.148 64.307 A 7.139 7.139 0 0 0 78.104 65.855 A 5.638 5.638 0 0 0 79.59 67.139 Q 81.152 68.066 83.154 68.359 A 27.594 27.594 0 0 0 85.721 68.608 A 34.417 34.417 0 0 0 87.5 68.652 L 87.5 75.879 A 32.24 32.24 0 0 1 85.204 76.146 A 35.566 35.566 0 0 1 84.863 76.172 A 33.618 33.618 0 0 1 84.003 76.238 Q 83.621 76.263 83.202 76.283 A 61.19 61.19 0 0 1 82.324 76.318 A 87.934 87.934 0 0 1 79.395 76.367 Q 77.93 76.367 76.465 76.27 Q 75 76.172 73.828 75.977 A 10.398 10.398 0 0 1 71.287 75.122 A 7.974 7.974 0 0 1 68.652 73.047 Q 66.797 70.801 65.82 68.018 A 24.006 24.006 0 0 1 64.854 64.428 A 20.491 20.491 0 0 1 64.6 62.598 A 87.24 87.24 0 0 1 64.493 61.353 Q 64.388 60.007 64.363 59.047 A 21.537 21.537 0 0 1 64.355 58.496 L 64.355 57.324 L 64.355 0 L 76.27 0 Z M 130.858 21.282 A 25.182 25.182 0 0 0 124.512 20.508 A 30.09 30.09 0 0 0 122.211 20.594 A 25.153 25.153 0 0 0 113.965 22.607 A 24.07 24.07 0 0 0 105.811 28.369 A 24.137 24.137 0 0 0 103.49 31.329 A 27.942 27.942 0 0 0 100.537 37.207 A 29.838 29.838 0 0 0 99.704 39.844 A 32.933 32.933 0 0 0 98.633 48.34 A 38.275 38.275 0 0 0 98.743 51.263 A 32.217 32.217 0 0 0 100.391 59.375 A 30.732 30.732 0 0 0 100.734 60.316 A 26.779 26.779 0 0 0 105.42 68.262 A 22.848 22.848 0 0 0 113.428 74.219 A 23.165 23.165 0 0 0 117.284 75.569 A 26.805 26.805 0 0 0 123.926 76.367 A 28.752 28.752 0 0 0 126.524 76.252 A 23.745 23.745 0 0 0 134.229 74.268 A 23.821 23.821 0 0 0 142.236 68.408 A 25.133 25.133 0 0 0 143.919 66.314 A 27.683 27.683 0 0 0 147.461 59.521 A 30.005 30.005 0 0 0 148.184 57.243 A 32.796 32.796 0 0 0 149.316 48.535 A 37.668 37.668 0 0 0 149.255 46.365 A 32.375 32.375 0 0 0 147.559 37.598 A 31.318 31.318 0 0 0 147.096 36.348 A 27.139 27.139 0 0 0 142.578 28.711 Q 139.355 24.902 134.766 22.705 A 21.58 21.58 0 0 0 130.858 21.282 Z M 123.73 67.09 A 10.424 10.424 0 0 0 127.961 66.234 A 10.105 10.105 0 0 0 129.053 65.674 Q 131.445 64.258 133.154 61.768 A 19.034 19.034 0 0 0 134.943 58.483 A 24.622 24.622 0 0 0 135.889 55.859 Q 136.914 52.441 136.914 48.535 A 29.196 29.196 0 0 0 136.476 43.395 A 25.352 25.352 0 0 0 135.986 41.211 A 24.812 24.812 0 0 0 134.737 37.651 A 19.807 19.807 0 0 0 133.447 35.205 A 13.959 13.959 0 0 0 130.886 32.131 A 12.623 12.623 0 0 0 129.492 31.055 Q 127.148 29.492 124.219 29.492 A 10.244 10.244 0 0 0 118.848 30.957 Q 116.406 32.422 114.697 34.912 A 17.875 17.875 0 0 0 112.828 38.463 A 22.496 22.496 0 0 0 112.061 40.771 A 26.05 26.05 0 0 0 111.206 45.892 A 31.084 31.084 0 0 0 111.133 48.047 A 32.838 32.838 0 0 0 111.562 53.435 A 28.786 28.786 0 0 0 111.963 55.42 A 21.359 21.359 0 0 0 113.069 58.818 A 16.724 16.724 0 0 0 114.453 61.426 A 15.113 15.113 0 0 0 116.971 64.397 A 13.407 13.407 0 0 0 118.408 65.527 A 9.042 9.042 0 0 0 122.982 67.065 A 11.226 11.226 0 0 0 123.73 67.09 Z M 11.719 67.285 L 26.367 67.285 A 12.989 12.989 0 0 0 29.797 66.856 A 9.398 9.398 0 0 0 34.473 63.965 A 11.286 11.286 0 0 0 36.955 59.084 Q 37.402 57.253 37.402 55.078 A 15.221 15.221 0 0 0 36.781 50.64 A 12.514 12.514 0 0 0 34.375 46.191 A 9.729 9.729 0 0 0 29.029 42.967 A 15.134 15.134 0 0 0 25.488 42.578 L 11.719 42.578 L 11.719 67.285 Z M 12.207 34.668 L 20.41 34.668 A 101.198 101.198 0 0 0 24.805 34.57 A 10.28 10.28 0 0 0 29.004 33.496 Q 30.957 32.52 32.178 30.176 A 8.911 8.911 0 0 0 32.873 28.322 Q 33.365 26.45 33.396 23.806 A 30.713 30.713 0 0 0 33.398 23.438 A 13.977 13.977 0 0 0 33.168 20.951 A 16.651 16.651 0 0 0 32.91 19.775 Q 32.422 17.871 30.957 16.309 A 8.193 8.193 0 0 0 29.337 14.993 Q 28.543 14.492 27.558 14.079 A 15.931 15.931 0 0 0 26.758 13.77 A 14.298 14.298 0 0 0 24.565 13.194 Q 22.409 12.793 19.531 12.793 L 11.719 12.793 L 11.719 34.668 L 12.207 34.668 Z" vector-effect="non-scaling-stroke"/></g></svg>