<?xml version="1.0" encoding="iso-8859-1"?>
<!-- Generator: Adobe Illustrator 21.0.0, SVG Export Plug-In . SVG Version: 6.00 Build 0)  -->
<svg xmlns="http://www.w3.org/2000/svg" xmlns:xlink="http://www.w3.org/1999/xlink" version="1.1" id="Capa_1" x="0px" y="0px" viewBox="0 0 512 512" style="enable-background:new 0 0 512 512;" xml:space="preserve" width="512" height="512">
<g>
	<g>
		<path style="fill:#F5F0E8;" d="M256,448.8c-8.284,0-15,6.716-15,15V497c0,8.284,6.716,15,15,15s15-6.716,15-15v-33.2    C271,455.516,264.284,448.8,256,448.8z"/>
		<path style="fill:#EFE0D9;" d="M271,463.8V497c0,8.284-6.716,15-15,15v-63.2C264.284,448.8,271,455.516,271,463.8z"/>
		<path style="fill:#DFCECC;" d="M256,305.267c-8.284,0-15,6.716-15,15V448.8c0,8.284,6.716,15,15,15s15-6.716,15-15V320.267    C271,311.982,264.284,305.267,256,305.267z"/>
		<path style="fill:#CEBCBF;" d="M271,320.267V448.8c0,8.284-6.716,15-15,15V305.267C264.284,305.267,271,311.982,271,320.267z"/>
		<path style="fill:#EFE0D9;" d="M256,433.8c-3.839,0-7.678,1.464-10.606,4.394l-32.134,32.133c-5.858,5.857-5.858,15.355,0,21.213    c5.857,5.858,15.355,5.858,21.213,0L256,470.013l21.527,21.527c5.857,5.856,15.355,5.858,21.213,0    c5.858-5.858,5.858-15.355,0-21.213l-32.134-32.133C263.678,435.264,259.839,433.8,256,433.8z"/>
		<path style="fill:#DFCECC;" d="M266.606,438.193l32.134,32.133c5.858,5.857,5.858,15.355,0,21.213    c-5.857,5.858-15.355,5.857-21.213,0L256,470.013V433.8C259.839,433.8,263.678,435.264,266.606,438.193z"/>
	</g>
	<g>
		<path style="fill:#DFCECC;" d="M213.334,231.367c4.142-7.174,1.684-16.348-5.49-20.49L96.53,146.61    c-7.174-4.142-16.348-1.684-20.49,5.49c-4.142,7.174-1.684,16.348,5.49,20.49l111.313,64.266    C200.018,240.999,209.192,238.541,213.334,231.367z"/>
		<path style="fill:#F5F0E8;" d="M89.03,159.601c4.142-7.174,1.684-16.348-5.49-20.49l-28.752-16.6    c-7.174-4.142-16.348-1.684-20.49,5.49c-4.142,7.174-1.684,16.348,5.49,20.49l28.752,16.6    C75.714,169.233,84.888,166.775,89.03,159.601z"/>
		<path style="fill:#EFE0D9;" d="M102.021,167.101c1.919-3.325,2.571-7.381,1.498-11.382l-11.761-43.895    c-2.144-8.002-10.369-12.751-18.371-10.606c-8.002,2.144-12.751,10.369-10.607,18.371l7.88,29.407l-29.407,7.88    c-8.001,2.144-12.751,10.369-10.606,18.371c2.144,8.002,10.369,12.751,18.371,10.606l43.895-11.762    C96.914,173.018,100.101,170.425,102.021,167.101z"/>
	</g>
	<path style="fill:#CEBCBF;" d="M305.267,256c0-8.284,6.716-15,15-15H448.8c8.284,0,15,6.716,15,15s-6.716,15-15,15H320.267   C311.982,271,305.267,264.284,305.267,256z"/>
	<path style="fill:#EFE0D9;" d="M448.8,256c0-8.284,6.716-15,15-15H497c8.284,0,15,6.716,15,15s-6.716,15-15,15h-33.2   C455.516,271,448.8,264.284,448.8,256z"/>
	<path style="fill:#DFCECC;" d="M433.8,256c0-3.839,1.464-7.678,4.394-10.606l32.133-32.134c5.857-5.858,15.355-5.858,21.213,0   c5.858,5.857,5.858,15.355,0,21.213L470.013,256l21.527,21.527c5.856,5.857,5.858,15.355,0,21.213   c-5.858,5.858-15.355,5.858-21.213,0l-32.133-32.134C435.264,263.678,433.8,259.839,433.8,256z"/>
	<g>
		<path style="fill:#DFCECC;" d="M206.733,256c0-8.284-6.716-15-15-15H63.2c-8.284,0-15,6.716-15,15s6.716,15,15,15h128.533    C200.018,271,206.733,264.284,206.733,256z"/>
		<path style="fill:#F5F0E8;" d="M63.2,256c0-8.284-6.716-15-15-15H15c-8.284,0-15,6.716-15,15s6.716,15,15,15h33.2    C56.484,271,63.2,264.284,63.2,256z"/>
		<path style="fill:#EFE0D9;" d="M78.2,256c0-3.839-1.464-7.678-4.394-10.606L41.673,213.26c-5.857-5.858-15.355-5.858-21.213,0    c-5.858,5.857-5.858,15.355,0,21.213L41.987,256L20.46,277.527c-5.856,5.857-5.858,15.355,0,21.213    c5.858,5.858,15.355,5.858,21.213,0l32.133-32.134C76.736,263.678,78.2,259.839,78.2,256z"/>
	</g>
	<path style="fill:#CEBCBF;" d="M280.633,213.334c-7.174-4.142-9.633-13.316-5.49-20.49L339.409,81.53   c4.142-7.174,13.316-9.633,20.49-5.49c7.174,4.142,9.633,13.316,5.49,20.49l-64.266,111.313   C296.981,215.018,287.807,217.476,280.633,213.334z"/>
	<path style="fill:#EFE0D9;" d="M352.399,89.03c-7.174-4.142-9.633-13.316-5.49-20.49l16.6-28.752   c4.142-7.174,13.316-9.633,20.49-5.49c7.174,4.142,9.633,13.316,5.49,20.49l-16.6,28.752   C368.748,90.714,359.574,93.172,352.399,89.03z"/>
	<path style="fill:#DFCECC;" d="M344.899,102.021c-3.325-1.919-5.917-5.107-6.989-9.108l-11.762-43.895   c-2.145-8.002,2.604-16.227,10.606-18.371c8.002-2.145,16.227,2.605,18.371,10.606l7.88,29.407l29.407-7.88   c8.001-2.143,16.227,2.605,18.371,10.607c2.145,8.002-2.604,16.227-10.606,18.371l-43.895,11.761   C352.281,104.591,348.224,103.94,344.899,102.021z"/>
	<g>
		<path style="fill:#DFCECC;" d="M231.367,298.666c-7.174-4.142-16.348-1.684-20.49,5.49L146.61,415.47    c-4.142,7.174-1.684,16.348,5.49,20.49c7.174,4.142,16.348,1.684,20.49-5.49l64.266-111.313    C240.999,311.982,238.541,302.808,231.367,298.666z"/>
		<path style="fill:#F5F0E8;" d="M159.601,422.97c-7.174-4.142-16.348-1.684-20.49,5.49l-16.6,28.752    c-4.142,7.174-1.684,16.348,5.49,20.49c7.174,4.142,16.348,1.684,20.49-5.49l16.6-28.752    C169.233,436.286,166.775,427.112,159.601,422.97z"/>
		<path style="fill:#EFE0D9;" d="M167.101,409.979c-3.325-1.919-7.381-2.571-11.382-1.498l-43.895,11.762    c-8.002,2.143-12.751,10.369-10.606,18.371c2.144,8.002,10.369,12.751,18.371,10.607l29.407-7.88l7.88,29.407    c2.144,8.001,10.369,12.751,18.371,10.606c8.002-2.144,12.751-10.369,10.606-18.371l-11.762-43.895    C173.018,415.086,170.425,411.899,167.101,409.979z"/>
	</g>
	<path style="fill:#CEBCBF;" d="M298.666,280.633c4.142-7.174,13.316-9.633,20.49-5.49l111.313,64.266   c7.174,4.142,9.633,13.316,5.49,20.49c-4.142,7.174-13.316,9.633-20.49,5.49l-111.313-64.266   C296.982,296.981,294.524,287.807,298.666,280.633z"/>
	<path style="fill:#EFE0D9;" d="M422.97,352.399c4.142-7.174,13.316-9.633,20.49-5.49l28.752,16.6   c7.174,4.142,9.633,13.316,5.49,20.49c-4.142,7.174-13.316,9.633-20.49,5.49l-28.752-16.6   C421.286,368.748,418.828,359.574,422.97,352.399z"/>
	<path style="fill:#DFCECC;" d="M409.979,344.899c1.919-3.325,5.107-5.917,9.108-6.989l43.895-11.762   c8.002-2.145,16.227,2.604,18.371,10.606c2.145,8.002-2.605,16.227-10.606,18.371l-29.407,7.88l7.88,29.407   c2.143,8.001-2.605,16.227-10.607,18.371c-8.002,2.145-16.227-2.604-18.371-10.606l-11.762-43.895   C407.409,352.281,408.06,348.224,409.979,344.899z"/>
	<path style="fill:#CEBCBF;" d="M298.666,231.366c-4.142-7.174-1.684-16.348,5.49-20.49l111.312-64.268   c7.174-4.142,16.348-1.684,20.49,5.49c4.142,7.174,1.684,16.348-5.49,20.49l-111.312,64.268   C311.982,240.998,302.808,238.54,298.666,231.366z"/>
	<path style="fill:#EFE0D9;" d="M422.968,159.598c-4.142-7.174-1.684-16.348,5.49-20.49l28.752-16.601   c7.174-4.142,16.348-1.684,20.49,5.49c4.142,7.174,1.684,16.348-5.49,20.49l-28.752,16.601   C436.284,169.23,427.11,166.772,422.968,159.598z"/>
	<path style="fill:#DFCECC;" d="M409.978,167.098c-1.919-3.325-2.571-7.381-1.498-11.382l11.761-43.896   c2.143-8.002,10.368-12.751,18.371-10.607c8.002,2.143,12.751,10.369,10.607,18.37l-7.879,29.407l29.407,7.879   c8.001,2.144,12.751,10.369,10.606,18.371c-2.144,8.003-10.369,12.751-18.371,10.607l-43.895-11.761   C415.085,173.015,411.897,170.422,409.978,167.098z"/>
	<g>
		<path style="fill:#DFCECC;" d="M213.334,280.634c-4.142-7.174-13.316-9.632-20.49-5.49L81.532,339.412    c-7.174,4.142-9.632,13.316-5.49,20.49c4.142,7.174,13.316,9.632,20.49,5.49l111.312-64.268    C215.018,296.982,217.476,287.808,213.334,280.634z"/>
		<path style="fill:#F5F0E8;" d="M89.032,352.402c-4.142-7.174-13.316-9.632-20.49-5.49L39.79,363.513    c-7.174,4.142-9.632,13.316-5.49,20.49s13.316,9.632,20.49,5.49l28.752-16.601C90.716,368.751,93.174,359.577,89.032,352.402z"/>
		<path style="fill:#EFE0D9;" d="M102.022,344.902c-1.919-3.325-5.107-5.917-9.108-6.989l-43.895-11.761    c-8.002-2.145-16.227,2.604-18.371,10.607c-2.145,8.002,2.605,16.227,10.606,18.371l29.407,7.879l-7.879,29.407    c-2.143,8.001,2.605,16.227,10.607,18.37c8.002,2.144,16.227-2.604,18.371-10.607l11.761-43.896    C104.593,352.284,103.942,348.227,102.022,344.902z"/>
	</g>
	<path style="fill:#CEBCBF;" d="M280.634,298.666c7.174-4.142,16.348-1.684,20.49,5.49l64.268,111.312   c4.142,7.174,1.684,16.348-5.49,20.49c-7.174,4.142-16.348,1.684-20.49-5.49l-64.268-111.312   C271.002,311.982,273.46,302.808,280.634,298.666z"/>
	<path style="fill:#EFE0D9;" d="M352.402,422.968c7.174-4.142,16.348-1.684,20.49,5.49l16.601,28.752   c4.142,7.174,1.684,16.348-5.49,20.49c-7.174,4.142-16.348,1.684-20.49-5.49l-16.601-28.752   C342.77,436.284,345.228,427.11,352.402,422.968z"/>
	<path style="fill:#DFCECC;" d="M344.902,409.978c3.325-1.919,7.381-2.571,11.382-1.498l43.896,11.761   c8.002,2.143,12.751,10.368,10.607,18.371c-2.143,8.002-10.369,12.751-18.371,10.607l-29.407-7.879l-7.879,29.407   c-2.144,8.001-10.369,12.751-18.371,10.606c-8.003-2.144-12.751-10.369-10.607-18.371l11.761-43.895   C338.985,415.085,341.578,411.897,344.902,409.978z"/>
	<g>
		<path style="fill:#DFCECC;" d="M231.366,213.334c7.174-4.142,9.632-13.316,5.49-20.49L172.588,81.532    c-4.142-7.174-13.316-9.632-20.49-5.49c-7.174,4.142-9.632,13.316-5.49,20.49l64.268,111.312    C215.018,215.018,224.192,217.476,231.366,213.334z"/>
		<path style="fill:#F5F0E8;" d="M159.598,89.032c7.174-4.142,9.632-13.316,5.49-20.49L148.487,39.79    c-4.142-7.174-13.316-9.632-20.49-5.49c-7.174,4.142-9.632,13.316-5.49,20.49l16.601,28.752    C143.249,90.716,152.423,93.174,159.598,89.032z"/>
		<path style="fill:#EFE0D9;" d="M167.098,102.022c3.325-1.919,5.917-5.107,6.989-9.108l11.761-43.895    c2.145-8.002-2.604-16.227-10.607-18.371c-8.002-2.145-16.227,2.605-18.371,10.606l-7.879,29.407l-29.407-7.879    c-8.001-2.143-16.227,2.605-18.37,10.607c-2.144,8.002,2.604,16.227,10.607,18.371l43.896,11.761    C159.716,104.593,163.773,103.942,167.098,102.022z"/>
	</g>
	<g>
		<path style="fill:#F5F0E8;" d="M256,63.2c-8.284,0-15-6.716-15-15V15c0-8.284,6.716-15,15-15s15,6.716,15,15v33.2    C271,56.484,264.284,63.2,256,63.2z"/>
		<path style="fill:#EFE0D9;" d="M271,48.2V15c0-8.284-6.716-15-15-15v63.2C264.284,63.2,271,56.484,271,48.2z"/>
		<path style="fill:#DFCECC;" d="M256,206.733c-8.284,0-15-6.716-15-15V63.2c0-8.284,6.716-15,15-15s15,6.716,15,15v128.533    C271,200.018,264.284,206.733,256,206.733z"/>
		<path style="fill:#CEBCBF;" d="M271,191.733V63.2c0-8.284-6.716-15-15-15v158.533C264.284,206.733,271,200.018,271,191.733z"/>
		<path style="fill:#EFE0D9;" d="M256,78.2c-3.839,0-7.678-1.464-10.606-4.394L213.26,41.673c-5.858-5.857-5.858-15.355,0-21.213    c5.857-5.858,15.355-5.858,21.213,0L256,41.987l21.527-21.527c5.857-5.856,15.355-5.858,21.213,0    c5.858,5.858,5.858,15.355,0,21.213l-32.134,32.133C263.678,76.736,259.839,78.2,256,78.2z"/>
		<path style="fill:#DFCECC;" d="M266.606,73.807l32.134-32.133c5.858-5.857,5.858-15.355,0-21.213    c-5.857-5.858-15.355-5.857-21.213,0L256,41.987V78.2C259.839,78.2,263.678,76.736,266.606,73.807z"/>
	</g>
	<path style="fill:#ECAD80;" d="M256,335.267c-43.708,0-79.267-35.559-79.267-79.267s35.559-79.267,79.267-79.267   s79.267,35.559,79.267,79.267S299.708,335.267,256,335.267z"/>
	<path style="fill:#E48844;" d="M335.267,256c0-43.708-35.559-79.267-79.267-79.267v158.533   C299.708,335.267,335.267,299.708,335.267,256z"/>
	<path style="fill:#E48844;" d="M256,206.733c-27.166,0-49.267,22.101-49.267,49.267s22.101,49.267,49.267,49.267   s49.267-22.101,49.267-49.267S283.166,206.733,256,206.733z"/>
	<path style="fill:#BA5F19;" d="M305.267,256c0-27.166-22.101-49.267-49.267-49.267v98.533   C283.166,305.267,305.267,283.166,305.267,256z"/>
</g>















</svg>
