<svg width="496.289" height="80.177" viewBox="0 0 496.289 80.177" xmlns="http://www.w3.org/2000/svg"><g id="svgGroup" stroke-linecap="round" fill-rule="evenodd" font-size="9pt" stroke="#000" stroke-width="0.25mm" fill="black" style="stroke:#000;stroke-width:0.25mm;fill:black"><path d="M 178.418 77.735 L 178.418 79.689 L 166.504 79.689 L 166.504 49.708 A 68.157 68.157 0 0 0 166.339 44.892 A 59.762 59.762 0 0 0 166.211 43.36 A 18.867 18.867 0 0 0 165.69 40.379 A 14.685 14.685 0 0 0 164.844 37.989 Q 163.77 35.646 161.914 34.327 A 6.407 6.407 0 0 0 160.015 33.427 Q 159.158 33.172 158.129 33.073 A 14.45 14.45 0 0 0 156.738 33.009 Q 155.688 33.009 154.03 33.289 A 32.634 32.634 0 0 0 153.955 33.302 Q 152.246 33.595 150.439 34.181 A 20.012 20.012 0 0 0 147.021 35.646 Q 145.41 36.525 144.629 37.696 L 144.629 38.282 L 144.629 38.478 L 144.629 60.157 L 144.629 60.353 L 144.629 79.689 L 132.813 79.689 L 132.813 24.61 L 143.359 24.61 L 144.629 30.177 A 15.748 15.748 0 0 1 145.77 29.232 Q 146.588 28.614 147.607 27.98 A 25.68 25.68 0 0 1 150.639 26.374 A 29.388 29.388 0 0 1 151.563 25.978 Q 153.711 25.099 155.957 24.562 A 19.241 19.241 0 0 1 159.542 24.043 A 17.425 17.425 0 0 1 160.352 24.025 Q 164.746 24.025 167.773 25.88 A 31.614 31.614 0 0 1 171.179 28.307 A 40.947 40.947 0 0 1 173.828 30.665 Q 175.488 32.325 176.416 34.523 A 21.962 21.962 0 0 1 177.783 39.112 A 34.317 34.317 0 0 1 178.32 43.946 A 119.752 119.752 0 0 1 178.418 48.732 L 178.418 77.735 Z M 496.289 77.735 L 496.289 79.689 L 484.375 79.689 L 484.375 49.708 A 68.157 68.157 0 0 0 484.21 44.892 A 59.762 59.762 0 0 0 484.082 43.36 A 18.867 18.867 0 0 0 483.561 40.379 A 14.685 14.685 0 0 0 482.715 37.989 Q 481.641 35.646 479.785 34.327 A 6.407 6.407 0 0 0 477.886 33.427 Q 477.029 33.172 476 33.073 A 14.45 14.45 0 0 0 474.609 33.009 Q 473.559 33.009 471.902 33.289 A 32.634 32.634 0 0 0 471.826 33.302 Q 470.117 33.595 468.311 34.181 A 20.012 20.012 0 0 0 464.893 35.646 Q 463.281 36.525 462.5 37.696 L 462.5 38.282 L 462.5 38.478 L 462.5 60.157 L 462.5 60.353 L 462.5 79.689 L 450.684 79.689 L 450.684 24.61 L 461.23 24.61 L 462.5 30.177 A 15.748 15.748 0 0 1 463.641 29.232 Q 464.459 28.614 465.479 27.98 A 25.68 25.68 0 0 1 468.51 26.374 A 29.388 29.388 0 0 1 469.434 25.978 Q 471.582 25.099 473.828 24.562 A 19.241 19.241 0 0 1 477.414 24.043 A 17.425 17.425 0 0 1 478.223 24.025 Q 482.617 24.025 485.645 25.88 A 31.614 31.614 0 0 1 489.05 28.307 A 40.947 40.947 0 0 1 491.699 30.665 Q 493.359 32.325 494.287 34.523 A 21.962 21.962 0 0 1 495.654 39.112 A 34.317 34.317 0 0 1 496.191 43.946 A 119.752 119.752 0 0 1 496.289 48.732 L 496.289 77.735 Z M 228.711 30.177 L 228.711 3.81 L 240.625 3.81 L 240.625 79.689 L 229.395 79.689 A 107.165 107.165 0 0 1 229.053 76.319 Q 228.906 74.61 228.711 73.146 A 3.692 3.692 0 0 1 228.246 74.247 Q 227.804 74.966 227.002 75.685 Q 225.678 76.872 223.671 77.845 A 20.803 20.803 0 0 1 223.389 77.98 Q 221.191 79.005 218.457 79.591 Q 215.723 80.177 212.793 80.177 A 22.274 22.274 0 0 1 205.127 78.81 A 15.792 15.792 0 0 1 199.614 75.345 A 19.327 19.327 0 0 1 198.437 74.122 Q 194.727 69.923 192.969 63.771 A 44.943 44.943 0 0 1 191.211 51.368 A 46.096 46.096 0 0 1 191.506 45.999 Q 191.829 43.25 192.505 40.912 A 23.808 23.808 0 0 1 193.311 38.575 Q 195.41 33.4 198.73 30.177 A 20.684 20.684 0 0 1 203.822 26.508 A 18.89 18.89 0 0 1 206.104 25.538 A 25.184 25.184 0 0 1 211.545 24.267 A 22.07 22.07 0 0 1 214.063 24.122 A 23.947 23.947 0 0 1 219.586 24.739 A 20.452 20.452 0 0 1 222.803 25.782 A 17.24 17.24 0 0 1 225.587 27.243 Q 227.521 28.511 228.711 30.177 Z M 305.664 56.153 L 267.383 56.153 A 14.585 14.585 0 0 0 267.937 60.22 A 13.165 13.165 0 0 0 268.555 61.915 A 14.088 14.088 0 0 0 271.729 66.456 A 14.12 14.12 0 0 0 275.83 69.153 A 16.424 16.424 0 0 0 276.514 69.435 A 16.26 16.26 0 0 0 281.671 70.49 A 18.831 18.831 0 0 0 282.52 70.509 A 12.245 12.245 0 0 0 283.361 70.477 Q 283.767 70.449 284.228 70.396 A 27.778 27.778 0 0 0 285.205 70.265 A 16.999 16.999 0 0 0 287.08 69.867 A 21.679 21.679 0 0 0 288.623 69.386 A 24.769 24.769 0 0 0 291.785 68.013 A 27.642 27.642 0 0 0 292.236 67.775 A 13.711 13.711 0 0 0 295.139 65.694 A 12.777 12.777 0 0 0 295.41 65.431 L 299.707 71.974 A 22.324 22.324 0 0 1 294.768 76.556 A 20.307 20.307 0 0 1 292.187 78.028 A 19.157 19.157 0 0 1 288 79.426 Q 285.983 79.865 283.629 80.009 A 38.975 38.975 0 0 1 281.25 80.079 A 23.404 23.404 0 0 1 271.191 77.882 Q 266.504 75.685 263.184 71.876 A 29.051 29.051 0 0 1 258.42 64.239 A 33.398 33.398 0 0 1 257.91 62.989 Q 255.957 57.911 255.957 52.052 Q 255.957 46.29 257.91 41.163 A 31.221 31.221 0 0 1 261.219 34.737 A 27.636 27.636 0 0 1 263.135 32.228 A 24.084 24.084 0 0 1 270.898 26.222 A 21.287 21.287 0 0 1 280.371 24.025 A 27.926 27.926 0 0 1 286.621 24.696 A 22.291 22.291 0 0 1 292.09 26.71 Q 297.168 29.396 300.439 33.839 Q 303.711 38.282 305.127 44.093 Q 306.543 49.903 305.664 56.153 Z M 27.246 79.689 L 0 79.689 L 0 7.716 L 21.68 7.716 Q 30.762 7.716 37.646 10.597 A 36.152 36.152 0 0 1 44.65 14.44 A 30.085 30.085 0 0 1 49.072 18.263 A 31.452 31.452 0 0 1 55.859 29.151 A 36.062 36.062 0 0 1 58.105 41.7 A 70.255 70.255 0 0 1 57.838 48.001 Q 57.391 52.949 56.201 56.886 A 46.564 46.564 0 0 1 54.339 62.005 Q 53.015 65.043 51.367 67.433 A 28.074 28.074 0 0 1 48.151 71.333 A 22.027 22.027 0 0 1 44.775 74.122 Q 41.113 76.564 37.695 77.784 A 35.774 35.774 0 0 1 34.817 78.684 Q 33.038 79.155 31.445 79.347 A 80.978 80.978 0 0 1 30.121 79.496 Q 28.79 79.635 27.886 79.673 A 15.039 15.039 0 0 1 27.246 79.689 Z M 114.16 49.903 L 114.16 62.599 L 114.16 63.38 A 17.387 17.387 0 0 0 114.166 63.816 Q 114.179 64.314 114.217 65.006 A 76.658 76.658 0 0 0 114.258 65.675 Q 114.355 67.189 114.648 68.751 A 11.409 11.409 0 0 0 115.164 70.633 A 9.663 9.663 0 0 0 115.576 71.583 A 4.141 4.141 0 0 0 116.089 72.382 A 2.777 2.777 0 0 0 117.285 73.243 L 114.16 79.786 A 6.243 6.243 0 0 1 112.643 79.59 A 8.378 8.378 0 0 1 111.475 79.2 A 10.551 10.551 0 0 1 109.408 78.049 A 12.497 12.497 0 0 1 108.74 77.54 Q 107.422 76.466 106.494 75.148 Q 105.566 73.829 105.078 72.267 A 6.974 6.974 0 0 1 103.985 74.057 Q 103.433 74.723 102.686 75.343 A 21.339 21.339 0 0 1 99.747 77.377 A 24.532 24.532 0 0 1 98.828 77.882 Q 96.68 79.005 94.189 79.591 A 23.02 23.02 0 0 1 91.64 80.048 A 17.693 17.693 0 0 1 89.551 80.177 Q 86.23 80.177 83.154 79.298 A 14.639 14.639 0 0 1 77.734 76.466 A 12.246 12.246 0 0 1 74.898 73.008 A 15.482 15.482 0 0 1 74.072 71.29 Q 72.754 68.068 72.754 63.38 A 17.83 17.83 0 0 1 73.145 59.56 A 13.543 13.543 0 0 1 74.658 55.616 Q 76.563 52.345 79.541 50.245 A 20.838 20.838 0 0 1 85.158 47.467 A 24.093 24.093 0 0 1 86.328 47.12 Q 90.137 46.095 94.043 46.095 L 102.344 46.095 A 76.916 76.916 0 0 0 102.296 43.295 Q 102.191 40.425 101.855 38.478 A 14.274 14.274 0 0 0 101.505 36.93 Q 101.036 35.312 100.251 34.392 A 4.162 4.162 0 0 0 100.195 34.327 A 5.1 5.1 0 0 0 97.314 32.667 Q 95.864 32.377 93.957 32.333 A 30.208 30.208 0 0 0 93.262 32.325 Q 91.113 32.325 89.209 32.862 A 26.046 26.046 0 0 0 86.756 33.683 A 22.053 22.053 0 0 0 85.693 34.132 A 18.496 18.496 0 0 0 84.026 34.99 A 14.48 14.48 0 0 0 82.861 35.743 A 69.277 69.277 0 0 0 82.291 36.158 Q 81.743 36.561 81.364 36.86 A 15.073 15.073 0 0 0 81.055 37.11 L 76.66 30.372 Q 77.343 29.621 78.505 28.845 A 19.106 19.106 0 0 1 79.59 28.175 A 23.339 23.339 0 0 1 81.97 26.99 A 30.432 30.432 0 0 1 84.082 26.173 A 34.767 34.767 0 0 1 87.692 25.146 A 41.627 41.627 0 0 1 89.6 24.757 A 34.627 34.627 0 0 1 95.299 24.223 A 38.335 38.335 0 0 1 95.801 24.22 A 27.657 27.657 0 0 1 101.514 24.806 Q 104.297 25.392 106.592 26.759 A 13.609 13.609 0 0 1 110.27 29.999 A 15.69 15.69 0 0 1 110.596 30.421 A 12.342 12.342 0 0 1 112.194 33.358 A 16.837 16.837 0 0 1 112.988 36.134 Q 113.672 39.552 113.916 43.019 Q 114.16 46.485 114.16 49.903 Z M 333.887 3.81 L 333.887 62.892 A 20.446 20.446 0 0 0 333.973 64.829 Q 334.064 65.787 334.253 66.588 A 8.059 8.059 0 0 0 334.766 68.116 A 7.139 7.139 0 0 0 335.721 69.664 A 5.638 5.638 0 0 0 337.207 70.948 Q 338.77 71.876 340.771 72.169 A 27.594 27.594 0 0 0 343.338 72.417 A 34.417 34.417 0 0 0 345.117 72.462 L 345.117 79.689 A 32.24 32.24 0 0 1 342.821 79.956 A 35.566 35.566 0 0 1 342.48 79.982 A 33.618 33.618 0 0 1 341.62 80.048 Q 341.238 80.073 340.819 80.093 A 61.19 61.19 0 0 1 339.941 80.128 A 87.934 87.934 0 0 1 337.012 80.177 Q 335.547 80.177 334.082 80.079 Q 332.617 79.982 331.445 79.786 A 10.398 10.398 0 0 1 328.905 78.931 A 7.974 7.974 0 0 1 326.27 76.857 Q 324.414 74.61 323.438 71.827 A 24.006 24.006 0 0 1 322.471 68.237 A 20.491 20.491 0 0 1 322.217 66.407 A 87.24 87.24 0 0 1 322.11 65.162 Q 322.005 63.816 321.98 62.857 A 21.537 21.537 0 0 1 321.973 62.306 L 321.973 61.134 L 321.973 3.81 L 333.887 3.81 Z M 416.893 25.092 A 25.182 25.182 0 0 0 410.547 24.318 A 30.09 30.09 0 0 0 408.246 24.404 A 25.153 25.153 0 0 0 400 26.417 A 24.07 24.07 0 0 0 391.846 32.179 A 24.137 24.137 0 0 0 389.525 35.138 A 27.942 27.942 0 0 0 386.572 41.017 A 29.838 29.838 0 0 0 385.739 43.653 A 32.933 32.933 0 0 0 384.668 52.15 A 38.275 38.275 0 0 0 384.778 55.073 A 32.217 32.217 0 0 0 386.426 63.185 A 30.732 30.732 0 0 0 386.769 64.126 A 26.779 26.779 0 0 0 391.455 72.071 A 22.848 22.848 0 0 0 399.463 78.028 A 23.165 23.165 0 0 0 403.32 79.379 A 26.805 26.805 0 0 0 409.961 80.177 A 28.752 28.752 0 0 0 412.56 80.062 A 23.745 23.745 0 0 0 420.264 78.077 A 23.821 23.821 0 0 0 428.271 72.218 A 25.133 25.133 0 0 0 429.955 70.124 A 27.683 27.683 0 0 0 433.496 63.331 A 30.005 30.005 0 0 0 434.219 61.053 A 32.796 32.796 0 0 0 435.352 52.345 A 37.668 37.668 0 0 0 435.29 50.175 A 32.375 32.375 0 0 0 433.594 41.407 A 31.318 31.318 0 0 0 433.131 40.158 A 27.139 27.139 0 0 0 428.613 32.521 Q 425.391 28.712 420.801 26.515 A 21.58 21.58 0 0 0 416.893 25.092 Z M 11.719 71.095 L 23.34 71.095 Q 31.916 71.095 37.051 67.148 A 16.28 16.28 0 0 0 40.527 63.478 A 25.625 25.625 0 0 0 43.843 56.484 Q 44.883 53.153 45.371 49.106 A 64.511 64.511 0 0 0 45.801 41.407 A 37.294 37.294 0 0 0 44.727 32.521 A 18.928 18.928 0 0 0 40.576 24.562 Q 37.5 20.997 32.227 18.8 A 25.155 25.155 0 0 0 27.63 17.419 Q 23.672 16.603 18.555 16.603 L 11.719 16.603 L 11.719 71.095 Z M 369.434 24.61 L 369.434 79.689 L 357.52 79.689 L 357.52 24.61 L 369.434 24.61 Z M 203.711 52.247 A 27.554 27.554 0 0 0 204.132 57.143 A 23.563 23.563 0 0 0 204.688 59.523 A 24.096 24.096 0 0 0 206.002 63.05 A 19.376 19.376 0 0 0 207.324 65.431 A 13.348 13.348 0 0 0 209.953 68.414 A 12.103 12.103 0 0 0 211.377 69.435 Q 213.77 70.9 216.602 70.9 A 10.345 10.345 0 0 0 220.22 70.278 A 9.58 9.58 0 0 0 222.021 69.386 Q 224.414 67.872 226.074 65.333 Q 227.734 62.794 228.613 59.376 A 28.216 28.216 0 0 0 229.437 53.974 A 33.166 33.166 0 0 0 229.492 52.052 A 29.196 29.196 0 0 0 229.054 46.912 A 25.352 25.352 0 0 0 228.564 44.728 A 22.07 22.07 0 0 0 227.295 41.206 A 17.722 17.722 0 0 0 225.928 38.771 A 14.378 14.378 0 0 0 223.152 35.679 A 13.044 13.044 0 0 0 221.826 34.718 A 9.836 9.836 0 0 0 216.794 33.211 A 11.871 11.871 0 0 0 216.406 33.204 A 10.308 10.308 0 0 0 213.134 33.71 A 9.211 9.211 0 0 0 211.035 34.718 Q 208.691 36.232 207.08 38.868 Q 205.469 41.505 204.59 44.923 A 28.216 28.216 0 0 0 203.766 50.325 A 33.166 33.166 0 0 0 203.711 52.247 Z M 409.766 70.9 A 10.424 10.424 0 0 0 413.996 70.044 A 10.105 10.105 0 0 0 415.088 69.484 Q 417.48 68.068 419.189 65.577 A 19.034 19.034 0 0 0 420.978 62.293 A 24.622 24.622 0 0 0 421.924 59.669 Q 422.949 56.251 422.949 52.345 A 29.196 29.196 0 0 0 422.511 47.205 A 25.352 25.352 0 0 0 422.021 45.021 A 24.812 24.812 0 0 0 420.772 41.461 A 19.807 19.807 0 0 0 419.482 39.015 A 13.959 13.959 0 0 0 416.921 35.941 A 12.623 12.623 0 0 0 415.527 34.864 Q 413.184 33.302 410.254 33.302 A 10.244 10.244 0 0 0 404.883 34.767 Q 402.441 36.232 400.732 38.722 A 17.875 17.875 0 0 0 398.863 42.273 A 22.496 22.496 0 0 0 398.096 44.581 A 26.05 26.05 0 0 0 397.241 49.702 A 31.084 31.084 0 0 0 397.168 51.857 A 32.838 32.838 0 0 0 397.597 57.245 A 28.786 28.786 0 0 0 397.998 59.23 A 21.359 21.359 0 0 0 399.104 62.628 A 16.724 16.724 0 0 0 400.488 65.235 A 15.113 15.113 0 0 0 403.006 68.207 A 13.407 13.407 0 0 0 404.443 69.337 A 9.042 9.042 0 0 0 409.017 70.875 A 11.226 11.226 0 0 0 409.766 70.9 Z M 267.773 47.56 L 294.727 47.56 A 14.308 14.308 0 0 0 293.75 42.384 A 16.2 16.2 0 0 0 291.064 37.794 Q 289.355 35.743 286.914 34.523 Q 284.473 33.302 281.641 33.204 A 13.643 13.643 0 0 0 277.709 33.758 A 12.338 12.338 0 0 0 276.074 34.376 A 14.204 14.204 0 0 0 271.68 37.501 Q 269.824 39.454 268.799 42.14 A 15.09 15.09 0 0 0 267.773 47.56 Z M 102.441 66.505 L 102.441 53.028 L 96.191 53.028 Q 94.238 53.028 92.09 53.419 Q 89.941 53.81 88.086 54.884 A 8.492 8.492 0 0 0 85.407 57.357 A 10.262 10.262 0 0 0 85.01 57.96 A 7.819 7.819 0 0 0 84.104 60.203 Q 83.789 61.5 83.789 63.087 Q 83.789 65.963 84.551 67.89 A 6.309 6.309 0 0 0 85.986 70.118 A 7.037 7.037 0 0 0 88.88 71.793 Q 89.98 72.133 91.308 72.229 A 14.941 14.941 0 0 0 92.383 72.267 A 10.96 10.96 0 0 0 97.809 70.812 A 12.979 12.979 0 0 0 97.998 70.704 A 13.357 13.357 0 0 0 102.441 66.505 Z M 369.894 9.959 A 6.882 6.882 0 0 0 370.508 7.032 A 8.31 8.31 0 0 0 370.507 6.941 A 6.771 6.771 0 0 0 368.457 2.052 A 8.072 8.072 0 0 0 368.393 1.988 A 6.774 6.774 0 0 0 363.477 0.001 A 6.812 6.812 0 0 0 361.129 0.401 A 6.918 6.918 0 0 0 358.594 2.052 A 8.072 8.072 0 0 0 358.53 2.116 A 6.774 6.774 0 0 0 356.543 7.032 Q 356.543 9.864 358.545 11.915 A 6.768 6.768 0 0 0 360.55 13.353 A 6.882 6.882 0 0 0 363.477 13.966 Q 366.406 13.966 368.457 11.964 A 6.768 6.768 0 0 0 369.894 9.959 Z" vector-effect="non-scaling-stroke"/></g></svg>