
<svg height="512" viewBox="0 0 24 24" width="512" xmlns="http://www.w3.org/2000/svg" fill="white">
  <path d="m22.53 21.47a.75.75 0 1 1 -1.06 1.0607l-2.7114-2.7114a2.9881 2.9881 0 0 1 -1.8271-1.8272l-8.1815-8.1811v9.189a3 3 0 1 1 -3-3 2.9693 2.9693 0 0 1 1.5.4161v-8.1051l-5.78-5.78a.75.75 0 1 1 1.06-1.061zm-.8742-19.6639a2.7272 2.7272 0 0 0 -2.4112-.4487l-10 2.8574a2.6257 2.6257 0 0 0 -.5514.2366l1.1519 1.152 9.8116-2.8034a1.25 1.25 0 0 1 1.5933 1.2014v2.7827l-7.9519 2.2723 1.2134 1.2136 6.7385-1.9257c0 1.4762.0011 4.2652.0015 6.0731a2.9118 2.9118 0 0 0 -2.7353-.1427l3.9592 3.9591a2.9638 2.9638 0 0 0 .2746-1.2338v-12.9986a2.727 2.727 0 0 0 -1.0942-2.1953z"/>
</svg>