
<svg height="512" viewBox="0 0 24 24" width="512" xmlns="http://www.w3.org/2000/svg" fill="white">
  <path d="m20.9062 2.1813a2.7251 2.7251 0 0 0 -2.4121-.4488l-10 2.8575a2.7613 2.7613 0 0 0 -1.9941 2.644v9.5577a2.9693 2.9693 0 0 0 -1.5-.4161 3 3 0 1 0 3 3v-7.0846l12.5-3.571v6.0722a2.9693 2.9693 0 0 0 -1.5-.4161 3 3 0 1 0 3 3v-12.9995a2.727 2.727 0 0 0 -1.0938-2.1953zm-.4062 4.978-12.5 3.5718v-3.4971a1.2553 1.2553 0 0 1 .9062-1.2017l10-2.8574a1.27 1.27 0 0 1 .3477-.0488 1.25 1.25 0 0 1 1.2461 1.2505z"/>
</svg>