<svg width="223.535" height="72.461" viewBox="0 0 223.535 72.461" xmlns="http://www.w3.org/2000/svg"><g id="svgGroup" stroke-linecap="round" fill-rule="evenodd" font-size="9pt" stroke="#000" stroke-width="0.25mm" fill="black" style="stroke:#000;stroke-width:0.25mm;fill:black"><path d="M 130.371 18.75 L 130.371 18.848 L 130.371 16.895 L 142.285 16.895 L 142.285 46.875 A 70.588 70.588 0 0 0 142.4 50.976 A 57.795 57.795 0 0 0 142.578 53.271 A 20.33 20.33 0 0 0 143.022 55.985 A 14.983 14.983 0 0 0 143.848 58.496 A 8.41 8.41 0 0 0 146.777 62.109 Q 148.73 63.477 151.953 63.477 A 11.02 11.02 0 0 0 152.621 63.454 Q 153.465 63.402 154.688 63.232 Q 156.445 62.988 158.252 62.402 A 20.012 20.012 0 0 0 161.67 60.938 Q 163.281 60.059 164.063 58.887 L 164.063 58.203 L 164.063 58.105 L 164.063 36.23 L 164.063 36.133 L 164.063 16.895 L 175.977 16.895 L 175.977 71.973 L 165.332 71.973 L 164.063 66.309 A 15.236 15.236 0 0 1 162.925 67.249 Q 162.122 67.853 161.133 68.457 A 31.236 31.236 0 0 1 158.554 69.865 A 36.775 36.775 0 0 1 157.275 70.459 A 25.731 25.731 0 0 1 152.979 71.924 Q 150.781 72.461 148.633 72.461 A 21.477 21.477 0 0 1 146.477 72.358 A 15.728 15.728 0 0 1 144.434 72.021 Q 142.578 71.582 140.967 70.654 Q 139.355 69.727 137.891 68.555 A 34.291 34.291 0 0 1 135.739 66.675 A 39.814 39.814 0 0 1 134.961 65.918 A 12.692 12.692 0 0 1 132.324 62.061 A 20.281 20.281 0 0 1 130.908 57.471 Q 130.469 55.078 130.42 52.637 A 239.376 239.376 0 0 1 130.371 47.852 L 130.371 18.75 Z M 40.234 0 L 53.613 0 L 32.227 42.676 L 32.227 71.973 L 20.313 71.973 L 20.313 43.652 L 0 0 L 13.379 0 L 25.781 32.227 L 26.855 32.227 L 40.234 0 Z M 223.535 16.504 L 223.535 28.809 A 20.35 20.35 0 0 0 221.019 28.271 Q 219.736 28.075 218.268 27.987 A 39.522 39.522 0 0 0 216.895 27.93 A 29.887 29.887 0 0 0 209.912 28.76 A 14.861 14.861 0 0 0 207.329 29.62 Q 205.612 30.383 204.395 31.543 L 204.395 52.441 L 204.395 52.637 L 204.395 71.973 L 192.578 71.973 L 192.578 16.895 L 203.125 16.895 L 204.395 22.559 A 25.866 25.866 0 0 1 207.471 19.922 A 13.176 13.176 0 0 1 209.878 18.546 A 16.186 16.186 0 0 1 211.23 18.018 A 21.441 21.441 0 0 1 213.26 17.442 Q 214.661 17.114 216.309 16.895 A 39.062 39.062 0 0 1 218.698 16.656 Q 219.774 16.58 220.983 16.542 A 81.099 81.099 0 0 1 223.535 16.504 Z M 96.971 17.376 A 25.182 25.182 0 0 0 90.625 16.602 A 30.09 30.09 0 0 0 88.325 16.688 A 25.153 25.153 0 0 0 80.078 18.701 A 24.07 24.07 0 0 0 71.924 24.463 A 24.137 24.137 0 0 0 69.603 27.422 A 27.942 27.942 0 0 0 66.65 33.301 A 29.838 29.838 0 0 0 65.817 35.938 A 32.933 32.933 0 0 0 64.746 44.434 A 38.275 38.275 0 0 0 64.856 47.357 A 32.217 32.217 0 0 0 66.504 55.469 A 30.732 30.732 0 0 0 66.847 56.41 A 26.779 26.779 0 0 0 71.533 64.355 A 22.848 22.848 0 0 0 79.541 70.313 A 23.165 23.165 0 0 0 83.398 71.663 A 26.805 26.805 0 0 0 90.039 72.461 A 28.752 28.752 0 0 0 92.638 72.346 A 23.745 23.745 0 0 0 100.342 70.361 A 23.821 23.821 0 0 0 108.35 64.502 A 25.133 25.133 0 0 0 110.033 62.408 A 27.683 27.683 0 0 0 113.574 55.615 A 30.005 30.005 0 0 0 114.297 53.337 A 32.796 32.796 0 0 0 115.43 44.629 A 37.668 37.668 0 0 0 115.368 42.459 A 32.375 32.375 0 0 0 113.672 33.691 A 31.318 31.318 0 0 0 113.21 32.442 A 27.139 27.139 0 0 0 108.691 24.805 Q 105.469 20.996 100.879 18.799 A 21.58 21.58 0 0 0 96.971 17.376 Z M 89.844 63.184 A 10.424 10.424 0 0 0 94.074 62.328 A 10.105 10.105 0 0 0 95.166 61.768 Q 97.559 60.352 99.268 57.861 A 19.034 19.034 0 0 0 101.056 54.577 A 24.622 24.622 0 0 0 102.002 51.953 Q 103.027 48.535 103.027 44.629 A 29.196 29.196 0 0 0 102.589 39.489 A 25.352 25.352 0 0 0 102.1 37.305 A 24.812 24.812 0 0 0 100.85 33.745 A 19.807 19.807 0 0 0 99.561 31.299 A 13.959 13.959 0 0 0 96.999 28.225 A 12.623 12.623 0 0 0 95.605 27.148 Q 93.262 25.586 90.332 25.586 A 10.244 10.244 0 0 0 84.961 27.051 Q 82.52 28.516 80.811 31.006 A 17.875 17.875 0 0 0 78.942 34.557 A 22.496 22.496 0 0 0 78.174 36.865 A 26.05 26.05 0 0 0 77.319 41.986 A 31.084 31.084 0 0 0 77.246 44.141 A 32.838 32.838 0 0 0 77.675 49.529 A 28.786 28.786 0 0 0 78.076 51.514 A 21.359 21.359 0 0 0 79.182 54.912 A 16.724 16.724 0 0 0 80.566 57.52 A 15.113 15.113 0 0 0 83.084 60.491 A 13.407 13.407 0 0 0 84.521 61.621 A 9.042 9.042 0 0 0 89.095 63.159 A 11.226 11.226 0 0 0 89.844 63.184 Z" vector-effect="non-scaling-stroke"/></g></svg>